<svg width="800" height="800" viewBox="0 0 800 800" fill="none" xmlns="http://www.w3.org/2000/svg">
<path d="M699.999 650C672.385 650 649.999 627.614 649.999 600L649.999 200C649.999 172.385 672.385 150 699.999 150C727.613 150 749.999 172.385 749.999 200L749.999 600C749.999 627.614 727.613 650 699.999 650ZM435.354 585.355C415.828 604.881 384.17 604.881 364.644 585.355C345.117 565.829 345.117 534.171 364.644 514.644L429.288 450L99.9989 450C72.3839 450 49.9989 427.614 49.9989 400C49.9989 372.386 72.3839 350 99.9989 350L429.288 350L364.644 285.355C345.117 265.83 345.117 234.17 364.644 214.645C384.17 195.12 415.828 195.12 435.354 214.645L620.71 400L435.354 585.355Z" fill="black"/>
</svg>
