<?xml version="1.0" encoding="UTF-8"?>
<svg id="Layer_1" data-name="Layer 1" xmlns="http://www.w3.org/2000/svg" xmlns:xlink="http://www.w3.org/1999/xlink" viewBox="0 0 1080 1080">
  <defs>
    <style>
      .cls-1 {
        fill: url(#linear-gradient);
      }

      .cls-1, .cls-2 {
        stroke-width: 0px;
      }

      .cls-2 {
        fill: #ed1e79;
      }
    </style>
    <linearGradient id="linear-gradient" x1="342.2" y1="375" x2="735.8" y2="375" gradientUnits="userSpaceOnUse">
      <stop offset="0" stop-color="#9e005d"/>
      <stop offset=".2" stop-color="#a70360"/>
      <stop offset=".54" stop-color="#c00d69"/>
      <stop offset=".97" stop-color="#e91c77"/>
      <stop offset=".99" stop-color="#ed1e79"/>
    </linearGradient>
  </defs>
  <g>
    <path class="cls-2" d="m342.2,142h316.31c42.65,0,77.28,34.63,77.28,77.28v35.97h-316.31c-42.65,0-77.28-34.63-77.28-77.28v-35.97h0Z"/>
    <path class="cls-1" d="m735.8,431.63h-280.34c-62.55,0-113.25-50.7-113.25-113.25h280.34c62.55,0,113.25,50.7,113.25,113.25Z"/>
    <path class="cls-2" d="m735.8,608h-280.34c-62.55,0-113.25-50.7-113.25-113.25v-176.37c0,62.55,50.7,113.25,113.25,113.25h0c0,34.86,28.26,63.12,63.12,63.12h103.97c62.55,0,113.25,50.7,113.25,113.25Z"/>
  </g>
  <g>
    <path class="cls-2" d="m139.1,709.58v29.08h56.89v37.68h-56.89v32.11h64.48v39.7h-114.04v-178.27h114.04v39.7h-64.48Z"/>
    <path class="cls-2" d="m254.28,843.48c-10.03-4.3-17.95-10.2-23.77-17.7-5.82-7.5-9.06-15.97-9.74-25.41h48.04c.67,4.55,2.78,8.09,6.32,10.62,3.54,2.53,7.92,3.79,13.15,3.79,4.05,0,7.25-.84,9.61-2.53,2.36-1.68,3.54-3.88,3.54-6.58,0-3.54-1.94-6.15-5.82-7.84-3.88-1.68-10.28-3.54-19.22-5.56-10.11-2.02-18.55-4.3-25.29-6.83-6.74-2.53-12.6-6.66-17.57-12.39-4.97-5.73-7.46-13.48-7.46-23.26,0-8.43,2.28-16.06,6.83-22.88,4.55-6.83,11.25-12.26,20.1-16.31s19.51-6.07,31.99-6.07c18.54,0,33.13,4.55,43.75,13.66,10.62,9.1,16.77,21.07,18.46,35.91h-44.76c-.85-4.55-2.83-8.05-5.94-10.49-3.12-2.44-7.29-3.67-12.52-3.67-4.05,0-7.12.76-9.23,2.28-2.11,1.52-3.16,3.63-3.16,6.32,0,3.37,1.94,5.94,5.82,7.71,3.88,1.77,10.11,3.58,18.71,5.44,10.28,2.19,18.84,4.64,25.67,7.33,6.83,2.7,12.81,7.04,17.95,13.02,5.14,5.99,7.71,14.12,7.71,24.4,0,8.26-2.4,15.68-7.21,22.25-4.8,6.57-11.63,11.76-20.48,15.55-8.85,3.79-19.26,5.69-31.23,5.69-12.81,0-24.24-2.15-34.26-6.45Z"/>
    <path class="cls-2" d="m455.43,805.92v42.23h-21.49c-36.25,0-54.37-17.95-54.37-53.86v-46.78h-17.45v-41.22h17.45v-34.39h49.81v34.39h25.79v41.22h-25.79v47.54c0,3.88.88,6.66,2.65,8.34,1.77,1.69,4.76,2.53,8.98,2.53h14.41Z"/>
    <path class="cls-2" d="m547.98,712.11c7.92-4.72,16.44-7.08,25.54-7.08v52.85h-13.91c-10.79,0-18.8,2.11-24.02,6.32-5.23,4.22-7.84,11.55-7.84,22v61.95h-49.56v-141.86h49.56v25.03c5.56-8.09,12.3-14.5,20.23-19.22Z"/>
    <path class="cls-2" d="m725.99,787.21h-93.81c.51,7.76,2.66,13.53,6.45,17.32s8.64,5.69,14.54,5.69c8.26,0,14.16-3.71,17.7-11.13h52.85c-2.19,9.78-6.45,18.5-12.77,26.17-6.32,7.67-14.29,13.7-23.9,18.08-9.61,4.39-20.23,6.58-31.86,6.58-13.99,0-26.42-2.95-37.3-8.85-10.87-5.9-19.39-14.33-25.54-25.29-6.16-10.96-9.23-23.85-9.23-38.69s3.04-27.69,9.1-38.56,14.54-19.26,25.41-25.16c10.87-5.9,23.39-8.85,37.55-8.85s26.38,2.87,37.17,8.6c10.79,5.73,19.22,13.95,25.29,24.65,6.07,10.71,9.1,23.31,9.1,37.8,0,3.88-.25,7.76-.76,11.63Zm-49.81-24.02c0-6.07-2.02-10.83-6.07-14.29-4.05-3.45-9.1-5.18-15.17-5.18s-11.04,1.64-14.92,4.93c-3.88,3.29-6.41,8.13-7.59,14.54h43.75Z"/>
    <path class="cls-2" d="m974.43,721.22c10.2,10.79,15.3,25.54,15.3,44.25v82.69h-49.56v-76.11c0-7.59-2.11-13.48-6.32-17.7-4.21-4.21-9.95-6.32-17.19-6.32s-12.98,2.11-17.19,6.32c-4.22,4.22-6.32,10.11-6.32,17.7v76.11h-49.56v-76.11c0-7.59-2.07-13.48-6.2-17.7-4.13-4.21-9.82-6.32-17.07-6.32s-13.24,2.11-17.45,6.32-6.32,10.11-6.32,17.7v76.11h-49.56v-141.86h49.56v18.71c4.38-6.07,10.07-10.91,17.07-14.54,6.99-3.62,15.04-5.44,24.15-5.44,10.45,0,19.76,2.28,27.94,6.83,8.17,4.55,14.62,10.96,19.34,19.22,5.06-7.75,11.71-14.03,19.98-18.84,8.26-4.8,17.36-7.21,27.31-7.21,17.87,0,31.9,5.4,42.1,16.18Z"/>
  </g>
</svg>