<?xml version="1.0" encoding="UTF-8"?>
<svg id="Layer_1" data-name="Layer 1" xmlns="http://www.w3.org/2000/svg" viewBox="0 0 1080 1080">
  <defs>
    <style>
      .cls-1 {
        stroke-width: 0px;
      }
    </style>
  </defs>
  <path class="cls-1" d="m198,105.08h562c67.33,0,122,54.67,122,122v74.81H320c-67.33,0-122-54.67-122-122v-74.81h0Z"/>
  <path class="cls-1" d="m882,608.41h-487.19c-108.7,0-196.81-88.11-196.81-196.81h487.19c108.7,0,196.81,88.11,196.81,196.81Z"/>
  <path class="cls-1" d="m882,914.92h-487.19c-108.7,0-196.81-88.12-196.81-196.81v-306.51c0,108.7,88.11,196.81,196.81,196.81h0c0,60.58,49.11,109.7,109.7,109.7h180.68c108.7,0,196.81,88.11,196.81,196.81Z"/>
</svg>